<?xml version="1.0" encoding="UTF-8"?>
<svg xmlns="http://www.w3.org/2000/svg" version="1.1" viewBox="0 0 264.3 64">
  <defs>
    <style>
      .cls-1 {
        fill: #fff;
      }
    </style>
  </defs>
  <!-- Generator: Adobe Illustrator 28.7.3, SVG Export Plug-In . SVG Version: 1.2.0 Build 164)  -->
  <g>
    <g id="Ebene_2">
      <g id="Ebene_4">
        <g>
          <path class="cls-1" d="M59,53c-7,0-12.7-5.6-12.7-12.5v-15.1l-12.7-13.7v30.5c0,12.1,11.4,21.8,25.5,21.8s25.5-9.8,25.5-21.8h-12.9c-.8,6.1-6.2,10.8-12.6,10.8Z"/>
          <polygon class="cls-1" points="59 13.4 59 13.4 47.7 0 33.5 0 33.5 4.4 59 31.8 71.7 18.1 71.7 37.8 84.5 37.8 84.5 0 70.2 0 59 13.4"/>
          <path class="cls-1" d="M19.6,35.4c5.8-3.2,9.6-9,9.6-16.7S21.6,0,7.8,0H0v11h6.8c5.8,0,9.3,3.2,9.3,8.2s-4.1,8.5-8.7,8.5H0v10.7l23.1,24.7h16l-24-25.7c2.5-.9,4.5-2,4.5-2h0Z"/>
          <g>
            <polygon class="cls-1" points="114.9 8.5 121.3 8.5 121.3 14.5 124.2 14.5 124.2 0 121.3 0 121.3 5.9 114.9 5.9 114.9 0 112.1 0 112.1 14.5 114.9 14.5 114.9 8.5"/>
            <polygon class="cls-1" points="137.3 12 131.1 12 131.1 8.3 136.8 8.3 136.8 5.9 131.1 5.9 131.1 2.5 137.3 2.5 137.1 0 128.3 0 128.3 14.5 137.1 14.5 137.3 12"/>
            <path class="cls-1" d="M107.2,31.9c0,2.8-1,3.9-3.2,3.9s-3.2-1.1-3.2-3.9v-8.3h-2.9v8.6c0,4.2,1.9,6.4,6.1,6.4s6.1-2.3,6.1-6.4v-8.6h-2.9v8.3h0Z"/>
            <path class="cls-1" d="M214.9,22.2c.8,0,1.4-.6,1.4-1.4s-.6-1.4-1.4-1.4-1.4.6-1.4,1.4.6,1.4,1.4,1.4Z"/>
            <path class="cls-1" d="M100.9,8.8h1.6l3.9,5.8h3v-.3c.1,0-4-5.9-4-5.9,1.7-.6,2.7-2,2.7-3.8,0-3-1.8-4.5-5.3-4.5h-4.9v14.5h2.9v-5.8h0ZM100.9,2.4h1.6c1.8,0,2.7.6,2.7,2.1s-.9,2-2.7,2h-1.6V2.4Z"/>
            <path class="cls-1" d="M219.4,8.4c0-1.4,0-2.4-.1-3.6h0c1,1.3,1.8,2.3,2.6,3.2l5.4,6.5h2.2V0h-2.9v5.7c0,1.4,0,2.4.2,3.6h0c-.9-1.3-1.7-2.3-2.5-3.2l-5-6.2h-2.6v14.5h2.9v-6.1h0Z"/>
            <path class="cls-1" d="M217.8,20.8c0,.8.6,1.4,1.4,1.4s1.4-.6,1.4-1.4-.6-1.4-1.4-1.4-1.4.6-1.4,1.4Z"/>
            <rect class="cls-1" x="209.6" width="2.9" height="14.5"/>
            <rect class="cls-1" x="140.9" width="2.9" height="14.5"/>
            <rect class="cls-1" x="192.6" y="23.6" width="2.9" height="14.5"/>
            <path class="cls-1" d="M215.5,23.6l-5.9,14.5h3.3l1.1-3.1h5.9l1.1,3.1h3.3l-5.8-14.5h-3.1,0ZM214.9,32.8l1.2-3.4c.3-.9.6-1.9.9-2.9h0c.2,1,.5,2,.9,2.9l1.2,3.4h-4.3Z"/>
            <path class="cls-1" d="M203.8,14.5h3.3l-5.8-14.5h-3.1l-5.9,14.5h3.3l1.1-3.1h5.9l1.1,3.1h0ZM197.6,9.2l1.2-3.4c.3-.9.6-1.9.9-2.9h0c.2,1,.5,2,.9,2.9l1.2,3.4h-4.3Z"/>
            <polygon class="cls-1" points="210.3 23.6 198 23.6 198 26.2 202.7 26.2 202.7 38.1 205.6 38.1 205.6 26.2 210.3 26.2 210.3 23.6"/>
            <polygon class="cls-1" points="223.8 26.2 228.5 26.2 228.5 38.1 231.4 38.1 231.4 26.2 236.1 26.2 236.1 23.6 223.8 23.6 223.8 26.2"/>
            <polygon class="cls-1" points="247.8 26.1 247.5 23.6 238.7 23.6 238.7 38.1 247.5 38.1 247.8 35.6 241.6 35.6 241.6 31.9 247.2 31.9 247.2 29.5 241.6 29.5 241.6 26.1 247.8 26.1"/>
            <rect class="cls-1" x="131.1" y="23.6" width="2.9" height="14.5"/>
            <polygon class="cls-1" points="162.3 26.1 162 23.6 153.2 23.6 153.2 38.1 162 38.1 162.3 35.6 156.1 35.6 156.1 31.9 161.7 31.9 161.7 29.5 156.1 29.5 156.1 26.1 162.3 26.1"/>
            <polygon class="cls-1" points="182.1 8.4 182.1 8.4 177.9 0 174.3 0 174.3 14.5 177.1 14.5 177.1 3.7 177.1 3.7 181.9 13.1 182.3 13.1 187.1 3.7 187.1 3.7 187.1 14.5 189.9 14.5 189.9 0 186.3 0 182.1 8.4"/>
            <path class="cls-1" d="M144.5,31.7c-.3.8-.6,1.7-.8,2.7h0c-.2-1-.6-2-.8-2.7l-2.9-8.1h-3.3l5.9,14.7h2.5l5.9-14.7h-3.3l-2.9,8.1h0Z"/>
            <path class="cls-1" d="M185.3,29.5c-2.6-1.1-3-1.6-3-2.4s.7-1.5,1.9-1.5,1.9.5,2.4,1.4h.4c0,0,2-1.4,2-1.4-1-1.6-2.6-2.5-4.8-2.5s-4.8,1.7-4.8,3.9,1,3.3,3.9,4.5c2.5,1.1,3.1,1.7,3.1,2.7s-.9,1.8-2.2,1.8-2.2-.6-3-1.9h-.4c0-.1-2,1.3-2,1.3,1.2,2.1,3,3,5.4,3s5.1-2,5.1-4.4-.9-3.2-4-4.6h0Z"/>
            <path class="cls-1" d="M176,28.1c0-3-1.8-4.5-5.3-4.5h-4.9v14.5h2.9v-5.8h1.6l3.9,5.8h3v-.3c.1,0-4-5.9-4-5.9,1.7-.6,2.7-2,2.7-3.8h0ZM170.4,30.1h-1.6v-4.1h1.6c1.8,0,2.7.6,2.7,2.1s-.9,2-2.7,2Z"/>
            <rect class="cls-1" x="164.2" y="6.4" width="7" height="2.5"/>
            <path class="cls-1" d="M254.2,32c0-1.4,0-2.4-.1-3.6h0c1,1.3,1.8,2.3,2.6,3.2l5.4,6.5h2.2v-14.5h-2.9v5.7c0,1.4,0,2.4.2,3.6h0c-.9-1.3-1.7-2.3-2.5-3.2l-5-6.2h-2.6v14.5h2.9v-6.1Z"/>
            <path class="cls-1" d="M116.9,32c0-1.4,0-2.4-.1-3.6h0c1,1.3,1.8,2.3,2.6,3.2l5.4,6.5h2.2v-14.5h-2.9v5.7c0,1.4,0,2.4.2,3.6h0c-.9-1.3-1.7-2.3-2.5-3.2l-5-6.2h-2.6v14.5h2.9v-6.1h0Z"/>
            <path class="cls-1" d="M150.7,8.4c0-1.4,0-2.4-.1-3.6h0c1,1.3,1.8,2.3,2.6,3.2l5.4,6.5h2.2V0h-2.9v5.7c0,1.4,0,2.4.2,3.6h0c-.9-1.3-1.7-2.3-2.5-3.2l-5.1-6.2h-2.6v14.5h2.9v-6.1h0Z"/>
          </g>
        </g>
      </g>
    </g>
  </g>
</svg>